<svg width="46" height="42" viewBox="0 0 46 42" fill="none" xmlns="http://www.w3.org/2000/svg">
<path d="M41.9096 8.92517H3.823C2.86688 8.92517 2.0918 9.70026 2.0918 10.6564V38.3557C2.0918 39.3118 2.86688 40.0869 3.823 40.0869H41.9096C42.8657 40.0869 43.6408 39.3118 43.6408 38.3557V10.6564C43.6408 9.70026 42.8657 8.92517 41.9096 8.92517Z" stroke="#4BB6AE" stroke-width="3" stroke-linecap="round" stroke-linejoin="round"/>
<path d="M31.523 8.92483V5.46241C31.523 4.54413 31.1582 3.66345 30.5089 3.01412C29.8596 2.36479 28.9789 2 28.0606 2H17.6734C16.7551 2 15.8744 2.36479 15.2251 3.01412C14.5757 3.66345 14.2109 4.54413 14.2109 5.46241V8.92483" stroke="#4BB6AE" stroke-width="3" stroke-linecap="round" stroke-linejoin="round"/>
<path d="M43.6408 20.675C37.3268 24.3266 30.1601 26.2452 22.8663 26.2366C15.5711 26.2555 8.40178 24.3363 2.0918 20.675" stroke="#4BB6AE" stroke-width="3" stroke-linecap="round" stroke-linejoin="round"/>
</svg>
