<svg width="30" height="43" viewBox="0 0 30 43" fill="none" xmlns="http://www.w3.org/2000/svg">
<path d="M14.6709 21.7242L2.17896 12.3552C1.97598 12.201 1.81114 12.0023 1.69715 11.7743C1.58316 11.5463 1.52306 11.2951 1.52148 11.0403V3.64368C1.52148 3.20775 1.69466 2.78967 2.00291 2.48142C2.31116 2.17317 2.72924 2 3.16517 2H26.1767C26.6127 2 27.0307 2.17317 27.339 2.48142C27.6472 2.78967 27.8204 3.20775 27.8204 3.64368V10.9581C27.8188 11.213 27.7587 11.4641 27.6447 11.6921C27.5308 11.9201 27.3659 12.1188 27.1629 12.273L14.6709 21.7242Z" stroke="#4BB6AE" stroke-width="3" stroke-linecap="round"/>
<path d="M14.6709 21.7241L2.17896 31.0931C1.97598 31.2473 1.81114 31.4461 1.69715 31.6741C1.58316 31.902 1.52306 32.1532 1.52148 32.4081V39.8046C1.52148 40.2406 1.69466 40.6586 2.00291 40.9669C2.31116 41.2751 2.72924 41.4483 3.16517 41.4483H26.1767C26.6127 41.4483 27.0307 41.2751 27.339 40.9669C27.6472 40.6586 27.8204 40.2406 27.8204 39.8046V32.4902C27.8188 32.2353 27.7587 31.9842 27.6447 31.7562C27.5308 31.5282 27.3659 31.3295 27.1629 31.1753L14.6709 21.7241Z" stroke="#4BB6AE" stroke-width="3" stroke-linecap="round"/>
</svg>
