<svg width="19" height="19" viewBox="0 0 19 19" fill="none" xmlns="http://www.w3.org/2000/svg">
<path fill-rule="evenodd" clip-rule="evenodd" d="M0.273438 9.37305C0.273438 5.77791 0.273438 3.98034 1.13013 2.6856C1.51268 2.10744 2.00783 1.61229 2.58599 1.22974C3.88073 0.373047 5.6783 0.373047 9.27344 0.373047C12.8686 0.373047 14.6661 0.373047 15.9609 1.22974C16.539 1.61229 17.0342 2.10744 17.4167 2.6856C18.2734 3.98034 18.2734 5.77791 18.2734 9.37305C18.2734 12.9682 18.2734 14.7658 17.4167 16.0605C17.0342 16.6387 16.539 17.1338 15.9609 17.5164C14.6661 18.373 12.8686 18.373 9.27344 18.373C5.6783 18.373 3.88073 18.373 2.58599 17.5164C2.00783 17.1338 1.51268 16.6387 1.13013 16.0605C0.273438 14.7658 0.273438 12.9682 0.273438 9.37305ZM13.9327 9.37327C13.9327 11.9466 11.8466 14.0327 9.27328 14.0327C6.69996 14.0327 4.61387 11.9466 4.61387 9.37327C4.61387 6.79995 6.69996 4.71387 9.27328 4.71387C11.8466 4.71387 13.9327 6.79995 13.9327 9.37327ZM9.27328 12.4563C10.976 12.4563 12.3563 11.076 12.3563 9.37327C12.3563 7.67058 10.976 6.29027 9.27328 6.29027C7.57058 6.29027 6.19027 7.67058 6.19027 9.37327C6.19027 11.076 7.57058 12.4563 9.27328 12.4563ZM14.1167 5.5746C14.7214 5.5746 15.2115 5.08443 15.2115 4.47977C15.2115 3.87512 14.7214 3.38495 14.1167 3.38495C13.5121 3.38495 13.0219 3.87512 13.0219 4.47977C13.0219 5.08443 13.5121 5.5746 14.1167 5.5746Z" fill="white"/>
</svg>
