<svg width="17" height="16" viewBox="0 0 17 16" fill="none" xmlns="http://www.w3.org/2000/svg">
<path d="M0.453125 1.95119C0.453125 1.42057 0.639469 0.982825 1.01214 0.637944C1.38481 0.293046 1.8693 0.120605 2.46558 0.120605C3.05122 0.120605 3.52505 0.290388 3.88708 0.629985C4.25975 0.980183 4.4461 1.43649 4.4461 1.99894C4.4461 2.50832 4.26509 2.93279 3.90305 3.27239C3.53038 3.62259 3.04057 3.79769 2.43364 3.79769H2.41767C1.83203 3.79769 1.3582 3.62259 0.996169 3.27239C0.634134 2.92219 0.453125 2.48179 0.453125 1.95119ZM0.66076 15.8795V5.24623H4.20652V15.8795H0.66076ZM6.17106 15.8795H9.71682V9.94207C9.71682 9.57064 9.75942 9.28412 9.84459 9.0825C9.99366 8.72168 10.2199 8.41658 10.5234 8.16721C10.8269 7.91782 11.2075 7.79313 11.6654 7.79313C12.858 7.79313 13.4542 8.59434 13.4542 10.1968V15.8795H17V9.78289C17 8.2123 16.6273 7.0211 15.882 6.20928C15.1366 5.39746 14.1517 4.99154 12.9272 4.99154C11.5536 4.99154 10.4835 5.58051 9.71682 6.75845V6.79029H9.70085L9.71682 6.75845V5.24623H6.17106C6.19235 5.58582 6.203 6.64171 6.203 8.41394C6.203 10.1861 6.19235 12.6747 6.17106 15.8795Z" fill="#FAFAFA"/>
</svg>
