<svg width="45" height="43" viewBox="0 0 45 43" fill="none" xmlns="http://www.w3.org/2000/svg">
<path d="M11.4021 41.4694C10.9661 41.4694 10.5479 41.2962 10.2395 40.9878C9.9312 40.6795 9.75798 40.2613 9.75798 39.8252V31.0496C8.85599 31.4799 7.85632 31.6642 6.86018 31.584C6.01672 31.522 5.19729 31.2749 4.4602 30.8602C3.72312 30.4455 3.0865 29.8734 2.59566 29.1847C2.10482 28.496 1.77183 27.7075 1.62037 26.8755C1.46891 26.0434 1.50273 25.1882 1.7194 24.3707C1.93607 23.5532 2.33027 22.7935 2.87395 22.1456C3.41763 21.4978 4.09742 20.9778 4.86494 20.6226C5.63246 20.2674 6.46885 20.0857 7.31457 20.0905C8.16029 20.0953 8.99455 20.2865 9.75798 20.6504V11.8748C9.75798 11.4387 9.9312 11.0205 10.2395 10.7122C10.5479 10.4039 10.9661 10.2306 11.4021 10.2306H20.9998C20.5695 9.32864 20.3852 8.32898 20.4655 7.33283C20.5274 6.48938 20.7746 5.66994 21.1893 4.93286C21.604 4.19578 22.176 3.55916 22.8647 3.06832C23.5535 2.57748 24.3419 2.24448 25.174 2.09303C26.006 1.94157 26.8613 1.97538 27.6788 2.19205C28.4963 2.40872 29.256 2.80292 29.9038 3.3466C30.5516 3.89029 31.0716 4.57008 31.4268 5.3376C31.7821 6.10512 31.9637 6.9415 31.9589 7.78722C31.9541 8.63294 31.7629 9.46721 31.399 10.2306H40.9967C41.4328 10.2306 41.851 10.4039 42.1593 10.7122C42.4676 11.0205 42.6409 11.4387 42.6409 11.8748V20.6504C41.7389 20.2201 40.7392 20.0358 39.7431 20.1161C38.8996 20.178 38.0802 20.4252 37.3431 20.8398C36.606 21.2545 35.9694 21.8266 35.4785 22.5153C34.9877 23.2041 34.6547 23.9925 34.5033 24.8246C34.3518 25.6566 34.3856 26.5118 34.6023 27.3293C34.8189 28.1469 35.2131 28.9066 35.7568 29.5544C36.3005 30.2022 36.9803 30.7222 37.7478 31.0774C38.5153 31.4326 39.3517 31.6143 40.1974 31.6095C41.0432 31.6047 41.8774 31.4135 42.6409 31.0496V39.8252C42.6409 40.2613 42.4676 40.6795 42.1593 40.9878C41.851 41.2962 41.4328 41.4694 40.9967 41.4694H11.4021Z" stroke="#4BB6AE" stroke-width="3" stroke-linecap="round"/>
</svg>
