<svg width="19" height="15" viewBox="0 0 19 15" fill="none" xmlns="http://www.w3.org/2000/svg">
<path d="M12.3005 0.0745307V0.0712891H13.1445L13.4529 0.132881C13.6585 0.172867 13.8451 0.225269 14.0128 0.290103C14.1806 0.354936 14.3429 0.430581 14.4998 0.51702C14.6567 0.60346 14.799 0.691536 14.9267 0.781217C15.0533 0.869829 15.1669 0.963838 15.2675 1.06324C15.367 1.16374 15.5223 1.18967 15.7333 1.14104C15.9443 1.09242 16.1715 1.02488 16.415 0.938439C16.6585 0.851999 16.8992 0.754749 17.1373 0.646688C17.3753 0.538626 17.5203 0.470016 17.5723 0.440841C17.6231 0.410596 17.6502 0.394387 17.6534 0.392216L17.6567 0.387353L17.6729 0.379249L17.6891 0.371145L17.7054 0.36304L17.7216 0.354936L17.7248 0.350074L17.7297 0.346832L17.7346 0.34359L17.7378 0.338728L17.7541 0.333865L17.7703 0.330624L17.7671 0.354936L17.7622 0.379249L17.7541 0.403561L17.7459 0.427874L17.7378 0.444082L17.7297 0.460291L17.7216 0.484603C17.7162 0.500812 17.7108 0.522418 17.7054 0.549437C17.7 0.576457 17.6486 0.684502 17.5512 0.873605C17.4538 1.06271 17.332 1.2545 17.186 1.449C17.0399 1.6435 16.909 1.79045 16.7932 1.88987C16.6763 1.99036 16.599 2.0606 16.5611 2.10058C16.5232 2.14164 16.4772 2.17945 16.4231 2.21404L16.342 2.26753L16.3257 2.27563L16.3095 2.28374L16.3063 2.2886L16.3014 2.29184L16.2965 2.29508L16.2933 2.29995L16.277 2.30805L16.2608 2.31615L16.2576 2.32102L16.2527 2.32426L16.2478 2.3275L16.2446 2.33236L16.2414 2.33722L16.2365 2.34047L16.2316 2.34371L16.2284 2.34857H16.3095L16.764 2.25132C17.0669 2.18649 17.3564 2.10815 17.6323 2.0163L18.0706 1.87042L18.1192 1.85421L18.1436 1.84611L18.1598 1.83801L18.1761 1.8299L18.1923 1.8218L18.2085 1.81369L18.241 1.80883L18.2734 1.80559V1.83801L18.2653 1.84125L18.2572 1.84611L18.254 1.85097L18.2491 1.85421L18.2442 1.85746L18.241 1.86232L18.2377 1.86718L18.2329 1.87042L18.228 1.87366L18.2247 1.87853L18.2215 1.88339L18.2166 1.88663L18.2085 1.90284L18.2004 1.91905L18.1955 1.92229C18.1934 1.92553 18.1247 2.01737 17.9894 2.19783C17.8541 2.37937 17.7811 2.4712 17.7703 2.47338C17.7595 2.47662 17.7443 2.49283 17.7248 2.522C17.7064 2.55225 17.5917 2.67274 17.3807 2.88345C17.1697 3.09416 16.9631 3.28162 16.7607 3.44588C16.5573 3.61121 16.4545 3.81435 16.4524 4.05532C16.4491 4.2952 16.4367 4.56643 16.415 4.86898C16.3934 5.17154 16.3528 5.4984 16.2933 5.84959C16.2338 6.20077 16.1418 6.59788 16.0174 7.0409C15.8929 7.48393 15.7414 7.91616 15.5629 8.33758C15.3843 8.759 15.1977 9.13719 15.0029 9.47217C14.8082 9.80715 14.6296 10.0908 14.4673 10.3231C14.305 10.5554 14.14 10.7742 13.9723 10.9795C13.8046 11.1849 13.5925 11.4161 13.336 11.6733C13.0785 11.9294 12.9378 12.0698 12.914 12.0947C12.8891 12.1185 12.7831 12.2071 12.5959 12.3605C12.4098 12.515 12.2096 12.6695 11.9953 12.8241C11.7822 12.9775 11.5863 13.1056 11.4078 13.2082C11.2293 13.3109 11.0139 13.4281 10.7618 13.5599C10.5108 13.6928 10.2392 13.816 9.94702 13.9295C9.65486 14.0429 9.34648 14.1483 9.02186 14.2455C8.69724 14.3428 8.38345 14.4184 8.08047 14.4725C7.77751 14.5265 7.43395 14.5724 7.04981 14.6102L6.47362 14.667V14.6751H5.41861V14.667L5.28065 14.6589C5.18869 14.6535 5.11294 14.648 5.05342 14.6426C4.99392 14.6373 4.76938 14.6075 4.37984 14.5535C3.9903 14.4995 3.68462 14.4454 3.4628 14.3914C3.24099 14.3374 2.91095 14.2347 2.47272 14.0835C2.03448 13.9322 1.65955 13.7793 1.34792 13.6248C1.03737 13.4713 0.842604 13.3741 0.763609 13.333C0.685701 13.293 0.598054 13.2433 0.500669 13.1839L0.354592 13.0947L0.351362 13.0899L0.346476 13.0866L0.341607 13.0834L0.338361 13.0785L0.32213 13.0704L0.305899 13.0623L0.302669 13.0575L0.297784 13.0542L0.292915 13.051L0.289668 13.0461L0.286438 13.0413L0.281553 13.038H0.273438V13.0056L0.289668 13.0088L0.305899 13.0137L0.378938 13.0218C0.42763 13.0272 0.560188 13.0353 0.776594 13.0461C0.993015 13.0569 1.22294 13.0569 1.4664 13.0461C1.70987 13.0353 1.95875 13.011 2.21302 12.9732C2.46731 12.9354 2.76758 12.8705 3.11383 12.7787C3.4601 12.6868 3.77823 12.5777 4.06822 12.4513C4.35713 12.3238 4.56271 12.2287 4.685 12.166C4.80617 12.1044 4.99121 11.9899 5.24007 11.8224L5.61338 11.5712L5.61663 11.5663L5.6215 11.5631L5.62638 11.5598L5.62961 11.5549L5.63286 11.5501L5.63773 11.5468L5.64261 11.5436L5.64584 11.5387L5.66208 11.5339L5.67831 11.5306L5.68155 11.5144L5.68642 11.4982L5.69131 11.495L5.69454 11.4901L5.56469 11.482C5.47813 11.4766 5.39427 11.4712 5.31311 11.4658C5.23196 11.4604 5.10482 11.4361 4.93169 11.3929C4.75857 11.3496 4.57192 11.2848 4.37172 11.1984C4.17155 11.1119 3.97678 11.0093 3.78741 10.8904C3.59807 10.7715 3.46117 10.6727 3.37677 10.5938C3.29346 10.516 3.18525 10.4058 3.05216 10.2631C2.92015 10.1194 2.80545 9.97192 2.70806 9.82065C2.61068 9.66937 2.51763 9.49484 2.42891 9.29712L2.29418 9.00212L2.28606 8.97781L2.27795 8.9535L2.27308 8.93729L2.26983 8.92108L2.29418 8.92432L2.31852 8.92918L2.49706 8.9535C2.6161 8.96971 2.80275 8.9751 3.05703 8.96971C3.31131 8.96431 3.48714 8.9535 3.58453 8.93729C3.68191 8.92108 3.74143 8.91027 3.76307 8.90487L3.79553 8.89677L3.83611 8.88866L3.87668 8.88056L3.87993 8.8757L3.8848 8.87245L3.88968 8.86921L3.89291 8.86435L3.86045 8.85625L3.82799 8.84814L3.79553 8.84004L3.76307 8.83193L3.73061 8.82383C3.70897 8.81843 3.6711 8.80762 3.61699 8.79141C3.56289 8.7752 3.41682 8.71577 3.17876 8.61312C2.94072 8.51047 2.75135 8.41051 2.61068 8.31326C2.46966 8.21573 2.33519 8.10907 2.20815 7.99396C2.08155 7.87726 1.94252 7.72706 1.79102 7.54337C1.63954 7.35968 1.50429 7.14626 1.38525 6.90313C1.26623 6.66001 1.17696 6.42769 1.11744 6.20617C1.05816 5.98595 1.01905 5.76081 1.0006 5.53352L0.971364 5.19315L0.987594 5.19639L1.00383 5.20125L1.02006 5.20935L1.03629 5.21746L1.05252 5.22556L1.06875 5.23367L1.32033 5.34713C1.48806 5.42277 1.69635 5.4876 1.94521 5.54163C2.1941 5.59565 2.34287 5.62538 2.39156 5.63077L2.4646 5.63888H2.61068L2.60745 5.63402L2.60256 5.63077L2.59769 5.62753L2.59445 5.62267L2.59122 5.61781L2.58633 5.61456L2.58146 5.61132L2.57822 5.60646L2.56199 5.59836L2.54575 5.59025L2.54252 5.58539L2.53764 5.58215L2.53277 5.57891L2.52952 5.57404L2.51329 5.56594L2.49706 5.55784L2.49383 5.55297C2.49059 5.5508 2.44405 5.51623 2.35423 5.44924C2.2655 5.38116 2.17245 5.2931 2.07506 5.18504C1.97768 5.07698 1.88029 4.96352 1.78291 4.84467C1.68534 4.72554 1.59844 4.59808 1.52321 4.46377C1.44748 4.3287 1.3674 4.15688 1.283 3.94834C1.19968 3.74087 1.13638 3.53178 1.09309 3.32107C1.04982 3.11037 1.02548 2.90236 1.02006 2.69705C1.01465 2.49174 1.02006 2.31615 1.03629 2.17028C1.05252 2.0244 1.08498 1.85961 1.13367 1.67592C1.18236 1.49223 1.25271 1.29773 1.34467 1.09242L1.48263 0.784459L1.49075 0.760146L1.49887 0.735834L1.50375 0.732592L1.50698 0.72773L1.51023 0.722867L1.5151 0.719625L1.51998 0.722867L1.52321 0.72773L1.52646 0.732592L1.53133 0.735834L1.53621 0.739075L1.53944 0.743938L1.54269 0.748801L1.54756 0.752042L1.55567 0.768251L1.56379 0.784459L1.56867 0.787701L1.5719 0.792563L1.79102 1.03569C1.9371 1.19777 2.11023 1.37877 2.31041 1.57867C2.5106 1.77857 2.6215 1.8823 2.64314 1.88987C2.66479 1.89851 2.69183 1.92336 2.72429 1.96443C2.75676 2.00442 2.86497 2.10005 3.04891 2.25132C3.23287 2.40259 3.47362 2.57819 3.77118 2.77809C4.06876 2.97799 4.39878 3.1752 4.76126 3.3697C5.12376 3.5642 5.5133 3.73979 5.92988 3.89647C6.34648 4.05316 6.63864 4.15581 6.80635 4.20443C6.97408 4.25306 7.26081 4.31519 7.66658 4.39083C8.07236 4.46647 8.37805 4.5151 8.58363 4.53671C8.78922 4.55831 8.9299 4.57074 9.00563 4.57398L9.11924 4.57723L9.11601 4.55291L9.11113 4.5286L9.07867 4.326C9.05703 4.19093 9.04621 4.00183 9.04621 3.7587C9.04621 3.51558 9.06515 3.29136 9.10301 3.08605C9.1409 2.88074 9.1977 2.67274 9.27344 2.46203C9.34919 2.25132 9.42331 2.0822 9.4958 1.95471C9.56939 1.82828 9.66569 1.68403 9.78471 1.52194C9.90375 1.35986 10.0579 1.19238 10.2473 1.01948C10.4367 0.846586 10.6531 0.692606 10.8965 0.557541C11.14 0.422477 11.3645 0.319813 11.5701 0.249582C11.7757 0.179351 11.9488 0.133416 12.0895 0.11181C12.2302 0.0902043 12.3005 0.0777724 12.3005 0.0745307Z" fill="white"/>
</svg>
